<svg xmlns="http://www.w3.org/2000/svg" viewBox="0 0 181.81 54.23">
<g>
<rect x="154.49" y="46.77" width="27.32" height="7.45"/>
<g>
    <path d="M23.57,44.17h-10.62v-10.55h10.62c10.02,0,9.95,10.55,0,10.55M22.23,23.57h-9.28v-9.7h9.28c9.5,0,9.93,9.7,0,9.7M33.8,28.07c12.25-4.29,11.51-24.25-9.31-24.25H0v50.4h6.47s18.66,0,18.66,0c22.21,0,22.73-22.03,8.67-26.15"/>
    <rect x="48.51" y="17.79" width="12.81" height="36.43"/>
    <path d="M92.09,17.28c-3.65,0-7.01,1.08-11.26,3.7v-3.18h-12.8v36.43h12.8v-25.02c4.49-4.05,11.12-2.64,11.12,4.14v20.88h12.81v-21.45c0-10.33-4.22-15.49-12.67-15.49h0Z"/>
    <path d="M54.92,0c-3.54,0-6.41,2.87-6.41,6.41s2.87,6.4,6.41,6.4,6.41-2.87,6.41-6.4-2.87-6.41-6.41-6.41"/>
    <path d="M128.4,44.91c-9.34,0-9.83-18.05,0-18.05,4.7,0,7.1,4.5,7.12,9.01v.04c.01,4.5-2.34,9-7.12,9M135.52,21.21c-2.57-2.51-6.04-4.09-10.39-4.09-21.99,0-20.9,37.1,0,37.1,4.36,0,7.82-1.54,10.39-3.99v3.99h12.66V4.4h-12.66v16.81Z"/>
</g>
</g>
</svg>
